<svg version="1.1" id="Layer_1" xmlns="http://www.w3.org/2000/svg" xmlns:xlink="http://www.w3.org/1999/xlink" x="0px" y="0px"
	 width="100%" viewBox="0 0 512 512" enable-background="new 0 0 512 512" xml:space="preserve">
<path fill="#FEFEFE" opacity="1.000000" stroke="none" 
	d="
M0.999997,439.000000 
	C1.000000,293.071350 1.000000,147.142700 1.000000,1.000000 
	C146.690674,1.000000 292.381470,1.000000 438.407654,1.378254 
	C429.395538,3.128265 421.343414,7.293581 414.210693,13.320165 
	C408.035492,18.537687 402.028076,24.332726 393.434540,24.698126 
	C386.389465,24.997683 379.275452,24.557428 372.236877,23.936401 
	C359.563599,22.818205 346.932281,21.232714 334.267975,20.001705 
	C319.618073,18.577688 304.969574,16.567783 290.286835,16.216175 
	C276.154083,15.877736 261.885651,16.552334 247.848389,18.223066 
	C234.611145,19.798576 221.447922,22.673563 208.520721,26.015785 
	C189.631134,30.899534 171.956528,39.004433 155.234329,49.036655 
	C148.339203,53.173275 141.623734,57.671864 135.189117,62.490013 
	C131.352783,65.362610 130.780807,70.607574 133.019318,73.786949 
	C135.840775,77.794258 141.099167,78.795898 145.765228,76.024704 
	C148.763535,74.243996 151.606155,72.200836 154.515549,70.270767 
	C200.533188,39.742893 251.463013,29.627209 305.782867,34.395924 
	C333.608917,36.838768 361.363708,40.092758 388.885925,43.329979 
	C369.040619,42.973949 349.441925,42.592365 329.883301,41.495846 
	C286.987976,39.090996 245.285156,43.679497 205.669785,61.439194 
	C204.320206,62.044209 203.217972,63.200924 201.992249,64.068176 
	C201.984024,64.035866 202.049347,64.047821 201.724609,63.851326 
	C200.918137,64.106255 200.436432,64.557678 199.966797,64.983147 
	C199.978897,64.957191 200.035400,64.966576 199.662674,64.804260 
	C198.364227,65.153008 197.438507,65.664062 196.310165,66.434296 
	C169.519653,79.064140 145.705322,95.528259 124.976013,116.205719 
	C113.622223,127.531097 103.162468,139.752747 91.994286,151.798035 
	C91.444771,152.693344 91.200539,153.360855 90.956123,153.998718 
	C90.955940,153.969101 91.012527,153.951538 90.692139,153.938416 
	C90.256615,154.306595 90.141487,154.687912 90.016762,155.037109 
	C90.007164,155.005005 90.073898,155.011139 89.706085,155.071869 
	C89.201271,155.753006 89.064270,156.373428 88.960495,156.994690 
	C88.993729,156.995529 88.971123,156.933014 88.610107,156.849304 
	C88.165184,157.192551 88.081291,157.619522 87.994377,158.019257 
	C87.991364,157.992020 88.046135,157.993958 87.704300,157.915100 
	C87.258301,158.250580 87.154129,158.664886 87.033340,159.044800 
	C87.016716,159.010406 87.090782,159.029144 86.692657,159.058334 
	C86.182053,159.729019 86.069580,160.370514 85.961266,160.992981 
	C85.965424,160.973938 86.000244,160.956421 85.641052,160.759232 
	C84.532372,162.051331 83.782875,163.540634 83.021355,165.009796 
	C83.009331,164.989655 83.056725,164.992142 82.761093,164.720383 
	C81.410439,165.714218 80.153854,166.861588 79.331436,168.263641 
	C70.852188,182.718979 61.600128,196.799850 54.206577,211.795242 
	C42.279114,235.986115 36.032791,261.959137 33.540520,288.461304 
	C33.918926,275.953033 33.903328,263.770844 35.036858,251.696548 
	C37.793510,222.332809 46.530739,194.618439 61.550430,169.309128 
	C70.343864,154.491531 81.117943,140.845871 91.067314,126.719711 
	C94.388985,122.003616 94.048218,115.811249 90.097923,113.006935 
	C86.386269,110.372040 79.999130,112.036125 76.930588,116.302330 
	C75.312447,118.552032 73.286736,120.515915 71.737541,122.806671 
	C62.439732,136.555145 52.629402,150.005341 44.150482,164.245956 
	C35.346634,179.032272 29.631191,195.276657 24.906942,211.872269 
	C19.626774,230.420761 16.528858,249.331039 16.190607,268.510101 
	C15.914587,284.160706 17.127398,299.853455 18.070049,315.504059 
	C18.698565,325.939148 20.033831,336.330933 21.013508,346.745758 
	C22.361412,361.075256 24.068666,375.387085 24.834377,389.748474 
	C25.226917,397.110901 22.799309,404.050995 17.113548,409.491791 
	C14.785327,411.719666 12.525452,414.283264 11.087929,417.125732 
	C7.466580,424.286316 4.330550,431.692352 0.999997,439.000000 
M116.481911,86.986298 
	C116.124496,86.638451 115.799416,86.247833 115.404655,85.949387 
	C111.601891,83.074387 107.441788,83.882996 104.438278,86.501060 
	C102.496429,88.193703 101.305725,91.828735 101.405136,94.533554 
	C101.560951,98.772659 105.043488,101.296188 109.061127,101.263237 
	C111.701271,101.241585 114.952545,99.988274 116.816589,98.154549 
	C119.909538,95.111916 119.033943,91.148369 116.481911,86.986298 
z"/>
<path fill="#FFFFFF" opacity="1.000000" stroke="none" 
	d="
M513.000000,75.000000 
	C513.000000,220.928650 513.000000,366.857300 513.000000,513.000000 
	C367.309326,513.000000 221.618546,513.000000 75.592903,512.621948 
	C86.096275,510.490814 95.636314,505.862579 103.257690,498.071320 
	C109.523537,491.665771 116.921471,488.968597 125.524544,489.054840 
	C131.275665,489.112457 137.034592,489.524902 142.767319,490.034149 
	C152.853119,490.930145 162.929337,491.950470 172.995407,493.048492 
	C187.578506,494.639221 202.121750,497.340088 216.732086,497.740875 
	C233.525040,498.201538 250.410858,497.152588 267.182404,495.825195 
	C277.452881,495.012329 287.775665,493.163818 297.738281,490.514343 
	C317.932343,485.143921 337.238373,477.364746 355.470520,466.978058 
	C376.204559,455.166016 395.021271,440.772430 412.056885,424.209015 
	C422.656769,413.902924 432.296021,402.578094 442.015411,391.405121 
	C453.502747,378.199860 462.828186,363.474701 470.996124,348.017365 
	C480.335114,330.343903 487.706268,311.789001 491.689117,292.277618 
	C494.932129,276.390472 496.974213,260.100677 497.712860,243.905685 
	C498.401520,228.806198 496.870850,213.583862 495.933563,198.439346 
	C495.288055,188.009232 493.966003,177.621735 492.986389,167.211395 
	C491.638580,152.888199 489.934692,138.582520 489.165771,124.227425 
	C488.771271,116.862915 491.223114,109.937103 496.898315,104.498123 
	C499.223419,102.269829 501.478088,99.705627 502.914795,96.864403 
	C506.534180,89.706566 509.670227,82.304291 513.000000,75.000000 
z"/>
<path fill="#020101" opacity="1.000000" stroke="none" 
	d="
M513.000000,74.531601 
	C509.670227,82.304291 506.534180,89.706566 502.914795,96.864403 
	C501.478088,99.705627 499.223419,102.269829 496.898315,104.498123 
	C491.223114,109.937103 488.771271,116.862915 489.165771,124.227425 
	C489.934692,138.582520 491.638580,152.888199 492.986389,167.211395 
	C493.966003,177.621735 495.288055,188.009232 495.933563,198.439346 
	C496.870850,213.583862 498.401520,228.806198 497.712860,243.905685 
	C496.974213,260.100677 494.932129,276.390472 491.689117,292.277618 
	C487.706268,311.789001 480.335114,330.343903 470.996124,348.017365 
	C462.828186,363.474701 453.502747,378.199860 442.015411,391.405121 
	C432.296021,402.578094 422.656769,413.902924 412.056885,424.209015 
	C395.021271,440.772430 376.204559,455.166016 355.470520,466.978058 
	C337.238373,477.364746 317.932343,485.143921 297.738281,490.514343 
	C287.775665,493.163818 277.452881,495.012329 267.182404,495.825195 
	C250.410858,497.152588 233.525040,498.201538 216.732086,497.740875 
	C202.121750,497.340088 187.578506,494.639221 172.995407,493.048492 
	C162.929337,491.950470 152.853119,490.930145 142.767319,490.034149 
	C137.034592,489.524902 131.275665,489.112457 125.524544,489.054840 
	C116.921471,488.968597 109.523537,491.665771 103.257690,498.071320 
	C95.636314,505.862579 86.096275,510.490814 75.129021,512.621948 
	C68.978851,513.000000 62.957695,513.000000 56.331673,512.615784 
	C38.200493,509.709503 24.577927,500.767426 13.983761,486.846741 
	C7.636473,478.506409 3.828448,468.981384 1.000000,459.000000 
	C1.000000,452.645599 1.000000,446.291199 0.999997,439.468384 
	C4.330550,431.692352 7.466580,424.286316 11.087929,417.125732 
	C12.525452,414.283264 14.785327,411.719666 17.113548,409.491791 
	C22.799309,404.050995 25.226917,397.110901 24.834377,389.748474 
	C24.068666,375.387085 22.361412,361.075256 21.013508,346.745758 
	C20.033831,336.330933 18.698565,325.939148 18.070049,315.504059 
	C17.127398,299.853455 15.914587,284.160706 16.190607,268.510101 
	C16.528858,249.331039 19.626774,230.420761 24.906942,211.872269 
	C29.631191,195.276657 35.346634,179.032272 44.150482,164.245956 
	C52.629402,150.005341 62.439732,136.555145 71.737541,122.806671 
	C73.286736,120.515915 75.312447,118.552032 76.930588,116.302330 
	C79.999130,112.036125 86.386269,110.372040 90.097923,113.006935 
	C94.048218,115.811249 94.388985,122.003616 91.067314,126.719711 
	C81.117943,140.845871 70.343864,154.491531 61.550430,169.309128 
	C46.530739,194.618439 37.793510,222.332809 35.036858,251.696548 
	C33.903328,263.770844 33.918926,275.953033 33.433716,288.943329 
	C33.819248,295.447357 33.980198,301.115936 34.581776,306.737305 
	C37.130356,330.552429 40.114414,354.325195 42.334553,378.169708 
	C43.817146,394.092926 41.803257,409.158295 30.098419,421.838531 
	C15.299776,437.870361 14.269858,454.289886 25.776014,472.842102 
	C41.623032,498.393372 70.616402,503.104858 92.900833,483.284271 
	C102.915665,474.376709 114.601791,470.763550 127.319122,471.477539 
	C144.730774,472.455078 162.058273,474.871887 179.437531,476.504822 
	C194.329269,477.904083 209.243057,479.068512 224.578339,480.498169 
	C234.327286,480.451233 243.664398,480.556244 252.959290,479.979889 
	C291.692780,477.578186 327.091919,465.126678 359.413666,443.837891 
	C388.349579,424.779175 412.952789,401.017242 433.909180,373.533722 
	C449.746307,352.763885 462.028412,330.021362 470.127869,305.072632 
	C481.729279,269.337097 482.531372,232.835159 478.540588,195.903824 
	C475.914307,171.599670 473.593903,147.262466 471.292297,122.572067 
	C472.006409,109.686234 477.053375,99.310921 485.643372,90.210693 
	C492.994446,82.423012 496.714844,72.823647 495.791199,61.964386 
	C494.088531,41.946949 476.616943,22.897141 456.917419,18.939819 
	C443.541168,16.252752 432.253296,20.419020 422.590942,29.345972 
	C413.072815,38.139633 402.072510,42.788013 389.150726,42.980152 
	C361.363708,40.092758 333.608917,36.838768 305.782867,34.395924 
	C251.463013,29.627209 200.533188,39.742893 154.515549,70.270767 
	C151.606155,72.200836 148.763535,74.243996 145.765228,76.024704 
	C141.099167,78.795898 135.840775,77.794258 133.019318,73.786949 
	C130.780807,70.607574 131.352783,65.362610 135.189117,62.490013 
	C141.623734,57.671864 148.339203,53.173275 155.234329,49.036655 
	C171.956528,39.004433 189.631134,30.899534 208.520721,26.015785 
	C221.447922,22.673563 234.611145,19.798576 247.848389,18.223066 
	C261.885651,16.552334 276.154083,15.877736 290.286835,16.216175 
	C304.969574,16.567783 319.618073,18.577688 334.267975,20.001705 
	C346.932281,21.232714 359.563599,22.818205 372.236877,23.936401 
	C379.275452,24.557428 386.389465,24.997683 393.434540,24.698126 
	C402.028076,24.332726 408.035492,18.537687 414.210693,13.320165 
	C421.343414,7.293581 429.395538,3.128265 438.871521,1.378254 
	C445.354401,1.000000 451.708801,1.000000 458.664764,1.381390 
	C476.157196,4.916088 489.612885,13.596554 500.010315,27.154545 
	C506.389069,35.472279 510.170410,45.018147 513.000000,55.000000 
	C513.000000,61.354397 513.000000,67.708794 513.000000,74.531601 
z"/>
<path fill="#FFFFFF" opacity="1.000000" stroke="none" 
	d="
M513.000000,54.531342 
	C510.170410,45.018147 506.389069,35.472279 500.010315,27.154545 
	C489.612885,13.596554 476.157196,4.916088 459.133179,1.381390 
	C476.926788,1.000000 494.853546,1.000000 513.000000,1.000000 
	C513.000000,18.686954 513.000000,36.374821 513.000000,54.531342 
z"/>
<path fill="#FFFFFF" opacity="1.000000" stroke="none" 
	d="
M1.000000,459.468658 
	C3.828448,468.981384 7.636473,478.506409 13.983761,486.846741 
	C24.577927,500.767426 38.200493,509.709503 55.863400,512.615784 
	C37.740562,513.000000 19.481121,513.000000 1.000000,513.000000 
	C1.000000,495.313049 1.000000,477.625183 1.000000,459.468658 
z"/>
<path fill="#FFE100" opacity="1.000000" stroke="none" 
	d="
M224.147095,480.336792 
	C209.243057,479.068512 194.329269,477.904083 179.437531,476.504822 
	C162.058273,474.871887 144.730774,472.455078 127.319122,471.477539 
	C114.601791,470.763550 102.915665,474.376709 92.900833,483.284271 
	C70.616402,503.104858 41.623032,498.393372 25.776014,472.842102 
	C14.269858,454.289886 15.299776,437.870361 30.098419,421.838531 
	C41.803257,409.158295 43.817146,394.092926 42.334553,378.169708 
	C40.114414,354.325195 37.130356,330.552429 34.581776,306.737305 
	C33.980198,301.115936 33.819248,295.447357 33.562408,289.318481 
	C36.032791,261.959137 42.279114,235.986115 54.206577,211.795242 
	C61.600128,196.799850 70.852188,182.718979 79.331436,168.263641 
	C80.153854,166.861588 81.410439,165.714218 82.874336,165.076141 
	C80.380768,170.742935 77.349808,175.713638 74.613289,180.841461 
	C72.053429,185.638245 73.394798,190.456619 77.649086,192.933502 
	C81.676834,195.278503 86.255180,193.974045 89.199715,189.446075 
	C91.190971,186.384003 92.883026,183.129120 94.813148,180.025299 
	C116.622154,144.954239 145.065384,116.502846 180.153595,94.725327 
	C195.070862,85.466919 211.150238,78.891563 227.972260,73.926178 
	C230.863205,73.072845 234.285095,70.863174 235.473831,68.342552 
	C236.526871,66.109718 235.550018,62.146233 234.143311,59.713505 
	C232.183456,56.324192 228.261841,56.238243 224.706894,57.260128 
	C217.110367,59.443794 209.566116,61.809410 202.000458,64.100494 
	C203.217972,63.200924 204.320206,62.044209 205.669785,61.439194 
	C245.285156,43.679497 286.987976,39.090996 329.883301,41.495846 
	C349.441925,42.592365 369.040619,42.973949 388.885925,43.329979 
	C402.072510,42.788013 413.072815,38.139633 422.590942,29.345972 
	C432.253296,20.419020 443.541168,16.252752 456.917419,18.939819 
	C476.616943,22.897141 494.088531,41.946949 495.791199,61.964386 
	C496.714844,72.823647 492.994446,82.423012 485.643372,90.210693 
	C477.053375,99.310921 472.006409,109.686234 470.975830,122.859245 
	C470.335785,125.318626 469.948303,127.133324 470.033905,128.925430 
	C470.967865,148.479828 472.199799,168.022583 472.907593,187.584534 
	C473.816162,212.697235 472.886230,237.765274 467.619873,262.415558 
	C461.266907,292.152100 449.297150,319.648621 432.559723,345.000885 
	C412.243683,375.773621 387.066498,402.110046 358.369537,425.154022 
	C338.424194,441.170288 316.708008,454.215851 293.045349,463.982544 
	C270.949982,473.102356 247.948944,478.406342 224.147095,480.336792 
M302.569641,60.186958 
	C301.698242,53.329945 299.408020,51.025070 292.736572,50.886478 
	C284.915100,50.723988 277.086151,50.691002 269.264679,50.833897 
	C263.310089,50.942684 259.786438,54.433147 259.956238,59.581093 
	C260.115875,64.420189 263.797852,67.748047 269.373291,67.831367 
	C277.198730,67.948311 285.026733,67.966148 292.853058,67.921028 
	C297.655090,67.893349 301.254761,66.044853 302.569641,60.186958 
M212.489334,417.615417 
	C214.464981,423.313263 221.825836,424.213470 225.342285,421.441620 
	C229.177246,418.418640 230.097153,413.471405 227.060043,409.571533 
	C224.708344,406.551758 221.584488,405.188599 217.826447,406.587097 
	C213.077393,408.354401 211.264984,411.893402 212.489334,417.615417 
M178.729340,420.120911 
	C175.862534,422.711029 174.455673,426.157532 176.225281,429.474518 
	C177.466187,431.800537 180.165421,433.974792 182.686493,434.842896 
	C186.339737,436.100861 190.185745,434.241669 191.177109,430.663055 
	C191.981964,427.757782 191.550629,423.645935 189.968079,421.144257 
	C187.542221,417.309357 183.293381,417.415497 178.729340,420.120911 
M250.378525,384.044281 
	C247.024536,381.273132 243.041534,380.624756 239.949036,383.479980 
	C237.955505,385.320557 236.630997,388.823547 236.585434,391.607361 
	C236.523468,395.393402 239.464798,398.416504 243.240234,398.407654 
	C245.989655,398.401245 249.386459,396.971344 251.331573,395.017944 
	C254.420166,391.916107 253.545151,388.006897 250.378525,384.044281 
M266.859558,409.899261 
	C268.842010,415.786407 273.259521,418.353485 278.085388,416.422821 
	C282.043091,414.839478 284.199066,410.832520 283.281555,406.765472 
	C282.334839,402.568939 278.834106,399.873383 274.596558,400.078094 
	C269.994446,400.300385 267.244873,403.497437 266.859558,409.899261 
M255.798065,439.500488 
	C259.242523,436.536865 260.220673,432.945435 258.117981,428.863983 
	C256.011078,424.774414 251.068802,423.238647 247.059708,425.187012 
	C243.073105,427.124542 241.262802,432.065063 243.036880,436.165955 
	C245.045517,440.808990 249.396835,442.169525 255.798065,439.500488 
M209.802933,437.954956 
	C206.011856,440.579926 204.922150,444.166473 206.644943,448.329041 
	C208.224304,452.144989 211.447830,453.591370 215.490158,453.168793 
	C219.473129,452.752411 221.656754,450.281006 222.545090,446.583282 
	C224.166077,439.836060 218.455124,435.571167 209.802933,437.954956 
z"/>
<path fill="#040401" opacity="1.000000" stroke="none" 
	d="
M201.992249,64.068176 
	C209.566116,61.809410 217.110367,59.443794 224.706894,57.260128 
	C228.261841,56.238243 232.183456,56.324192 234.143311,59.713505 
	C235.550018,62.146233 236.526871,66.109718 235.473831,68.342552 
	C234.285095,70.863174 230.863205,73.072845 227.972260,73.926178 
	C211.150238,78.891563 195.070862,85.466919 180.153595,94.725327 
	C145.065384,116.502846 116.622154,144.954239 94.813148,180.025299 
	C92.883026,183.129120 91.190971,186.384003 89.199715,189.446075 
	C86.255180,193.974045 81.676834,195.278503 77.649086,192.933502 
	C73.394798,190.456619 72.053429,185.638245 74.613289,180.841461 
	C77.349808,175.713638 80.380768,170.742935 83.169968,165.347900 
	C83.056725,164.992142 83.009331,164.989655 83.370346,165.049042 
	C84.487656,163.724426 85.243950,162.340424 86.000244,160.956421 
	C86.000244,160.956421 85.965424,160.973938 86.327667,160.938583 
	C86.823540,160.278534 86.957161,159.653839 87.090782,159.029144 
	C87.090782,159.029144 87.016716,159.010406 87.373070,159.144897 
	C87.834999,158.850906 87.940567,158.422440 88.046135,157.993958 
	C88.046135,157.993958 87.991364,157.992020 88.307556,158.033264 
	C88.739540,157.694016 88.855331,157.313507 88.971130,156.933014 
	C88.971123,156.933014 88.993729,156.995529 89.281052,156.901093 
	C89.736885,156.208145 89.905396,155.609650 90.073898,155.011139 
	C90.073898,155.011139 90.007164,155.005005 90.333389,155.056122 
	C90.777252,154.722000 90.894890,154.336777 91.012527,153.951538 
	C91.012527,153.951538 90.955940,153.969101 91.333038,153.847382 
	C91.906616,153.007202 92.103096,152.288727 92.299576,151.570236 
	C103.162468,139.752747 113.622223,127.531097 124.976013,116.205719 
	C145.705322,95.528259 169.519653,79.064140 196.689636,66.626755 
	C198.192963,66.028877 199.114182,65.497726 200.035400,64.966583 
	C200.035400,64.966576 199.978897,64.957191 200.310638,65.076180 
	C201.111374,64.812721 201.580368,64.430267 202.049347,64.047821 
	C202.049347,64.047821 201.984024,64.035866 201.992249,64.068176 
z"/>
<path fill="#040404" opacity="1.000000" stroke="none" 
	d="
M116.736969,87.274994 
	C119.033943,91.148369 119.909538,95.111916 116.816589,98.154549 
	C114.952545,99.988274 111.701271,101.241585 109.061127,101.263237 
	C105.043488,101.296188 101.560951,98.772659 101.405136,94.533554 
	C101.305725,91.828735 102.496429,88.193703 104.438278,86.501060 
	C107.441788,83.882996 111.601891,83.074387 115.404655,85.949387 
	C115.799416,86.247833 116.124496,86.638451 116.736969,87.274994 
z"/>
<path fill="#FFE100" opacity="1.000000" stroke="none" 
	d="
M85.641052,160.759232 
	C85.243950,162.340424 84.487656,163.724426 83.382370,165.069183 
	C83.782875,163.540634 84.532372,162.051331 85.641052,160.759232 
z"/>
<path fill="#FFE100" opacity="1.000000" stroke="none" 
	d="
M199.662674,64.804268 
	C199.114182,65.497726 198.192963,66.028877 196.892273,66.367569 
	C197.438507,65.664062 198.364227,65.153008 199.662674,64.804268 
z"/>
<path fill="#FFE100" opacity="1.000000" stroke="none" 
	d="
M201.724609,63.851326 
	C201.580368,64.430267 201.111374,64.812721 200.298553,65.102135 
	C200.436432,64.557678 200.918137,64.106255 201.724609,63.851326 
z"/>
<path fill="#FFE100" opacity="1.000000" stroke="none" 
	d="
M91.994293,151.798035 
	C92.103096,152.288727 91.906616,153.007202 91.333221,153.877014 
	C91.200539,153.360855 91.444771,152.693344 91.994293,151.798035 
z"/>
<path fill="#FFE100" opacity="1.000000" stroke="none" 
	d="
M89.706085,155.071869 
	C89.905396,155.609650 89.736885,156.208145 89.247826,156.900238 
	C89.064270,156.373428 89.201271,155.753006 89.706085,155.071869 
z"/>
<path fill="#FFE100" opacity="1.000000" stroke="none" 
	d="
M86.692657,159.058334 
	C86.957161,159.653839 86.823540,160.278534 86.323517,160.957611 
	C86.069580,160.370514 86.182053,159.729019 86.692657,159.058334 
z"/>
<path fill="#FFE100" opacity="1.000000" stroke="none" 
	d="
M90.692139,153.938416 
	C90.894890,154.336777 90.777252,154.722000 90.342987,155.088226 
	C90.141487,154.687912 90.256615,154.306595 90.692139,153.938416 
z"/>
<path fill="#FFE100" opacity="1.000000" stroke="none" 
	d="
M88.610107,156.849304 
	C88.855331,157.313507 88.739540,157.694016 88.310570,158.060486 
	C88.081291,157.619522 88.165184,157.192551 88.610107,156.849304 
z"/>
<path fill="#FFE100" opacity="1.000000" stroke="none" 
	d="
M87.704300,157.915100 
	C87.940567,158.422440 87.834999,158.850906 87.389694,159.179291 
	C87.154129,158.664886 87.258301,158.250580 87.704300,157.915100 
z"/>
<path fill="#FCA600" opacity="1.000000" stroke="none" 
	d="
M224.578339,480.498169 
	C247.948944,478.406342 270.949982,473.102356 293.045349,463.982544 
	C316.708008,454.215851 338.424194,441.170288 358.369537,425.154022 
	C387.066498,402.110046 412.243683,375.773621 432.559723,345.000885 
	C449.297150,319.648621 461.266907,292.152100 467.619873,262.415558 
	C472.886230,237.765274 473.816162,212.697235 472.907593,187.584534 
	C472.199799,168.022583 470.967865,148.479828 470.033905,128.925430 
	C469.948303,127.133324 470.335785,125.318626 470.820068,123.227234 
	C473.593903,147.262466 475.914307,171.599670 478.540588,195.903824 
	C482.531372,232.835159 481.729279,269.337097 470.127869,305.072632 
	C462.028412,330.021362 449.746307,352.763885 433.909180,373.533722 
	C412.952789,401.017242 388.349579,424.779175 359.413666,443.837891 
	C327.091919,465.126678 291.692780,477.578186 252.959290,479.979889 
	C243.664398,480.556244 234.327286,480.451233 224.578339,480.498169 
z"/>
<path fill="#060500" opacity="1.000000" stroke="none" 
	d="
M302.464111,60.548447 
	C301.254761,66.044853 297.655090,67.893349 292.853058,67.921028 
	C285.026733,67.966148 277.198730,67.948311 269.373291,67.831367 
	C263.797852,67.748047 260.115875,64.420189 259.956238,59.581093 
	C259.786438,54.433147 263.310089,50.942684 269.264679,50.833897 
	C277.086151,50.691002 284.915100,50.723988 292.736572,50.886478 
	C299.408020,51.025070 301.698242,53.329945 302.464111,60.548447 
z"/>
<path fill="#080700" opacity="1.000000" stroke="none" 
	d="
M212.358978,417.237732 
	C211.264984,411.893402 213.077393,408.354401 217.826447,406.587097 
	C221.584488,405.188599 224.708344,406.551758 227.060043,409.571533 
	C230.097153,413.471405 229.177246,418.418640 225.342285,421.441620 
	C221.825836,424.213470 214.464981,423.313263 212.358978,417.237732 
z"/>
<path fill="#070700" opacity="1.000000" stroke="none" 
	d="
M179.042206,419.911621 
	C183.293381,417.415497 187.542221,417.309357 189.968079,421.144257 
	C191.550629,423.645935 191.981964,427.757782 191.177109,430.663055 
	C190.185745,434.241669 186.339737,436.100861 182.686493,434.842896 
	C180.165421,433.974792 177.466187,431.800537 176.225281,429.474518 
	C174.455673,426.157532 175.862534,422.711029 179.042206,419.911621 
z"/>
<path fill="#080700" opacity="1.000000" stroke="none" 
	d="
M250.649033,384.333008 
	C253.545151,388.006897 254.420166,391.916107 251.331573,395.017944 
	C249.386459,396.971344 245.989655,398.401245 243.240234,398.407654 
	C239.464798,398.416504 236.523468,395.393402 236.585434,391.607361 
	C236.630997,388.823547 237.955505,385.320557 239.949036,383.479980 
	C243.041534,380.624756 247.024536,381.273132 250.649033,384.333008 
z"/>
<path fill="#080700" opacity="1.000000" stroke="none" 
	d="
M266.816101,409.537201 
	C267.244873,403.497437 269.994446,400.300385 274.596558,400.078094 
	C278.834106,399.873383 282.334839,402.568939 283.281555,406.765472 
	C284.199066,410.832520 282.043091,414.839478 278.085388,416.422821 
	C273.259521,418.353485 268.842010,415.786407 266.816101,409.537201 
z"/>
<path fill="#070600" opacity="1.000000" stroke="none" 
	d="
M255.469727,439.725616 
	C249.396835,442.169525 245.045517,440.808990 243.036880,436.165955 
	C241.262802,432.065063 243.073105,427.124542 247.059708,425.187012 
	C251.068802,423.238647 256.011078,424.774414 258.117981,428.863983 
	C260.220673,432.945435 259.242523,436.536865 255.469727,439.725616 
z"/>
<path fill="#050500" opacity="1.000000" stroke="none" 
	d="
M210.152115,437.746338 
	C218.455124,435.571167 224.166077,439.836060 222.545090,446.583282 
	C221.656754,450.281006 219.473129,452.752411 215.490158,453.168793 
	C211.447830,453.591370 208.224304,452.144989 206.644943,448.329041 
	C204.922150,444.166473 206.011856,440.579926 210.152115,437.746338 
z"/>
</svg>